<?xml version="1.0" encoding="UTF-8"?>
<!-- Generator: Adobe Illustrator 16.0.0, SVG Export Plug-In . SVG Version: 6.00 Build 0)  -->
<svg width="536.71" height="348.17" enable-background="new 0 0 3354.111 713.496" version="1.1" viewBox="0 0 536.71 348.17" xml:space="preserve" xmlns="http://www.w3.org/2000/svg">
<g transform="translate(-88.432 -183.66)">
	
	
	<path d="m577.1 287.15 43.049-46.836h-95.465c-47.792-32.646-105.51-51.659-167.93-51.659-62.342 0-119.9 19.054-167.61 51.659h-95.704l43.049 46.836c-26.387 24.075-42.929 58.754-42.929 97.259 0 72.665 58.914 131.58 131.58 131.58 34.519 0 65.968-13.313 89.446-35.077l42.172 45.919 42.172-45.879c23.478 21.764 54.887 35.037 89.406 35.037 72.665 0 131.66-58.913 131.66-131.58 0.039-38.545-16.502-73.223-42.89-97.259zm-351.92 186.31c-49.188 0-89.047-39.859-89.047-89.047s39.86-89.048 89.047-89.048 89.047 39.86 89.047 89.048-39.86 89.047-89.047 89.047zm131.62-91.638c0-58.595-42.61-108.9-98.853-130.38 30.413-12.716 63.776-19.771 98.813-19.771s68.439 7.055 98.853 19.771c-56.202 21.525-98.813 71.789-98.813 130.38zm131.58 91.638c-49.188 0-89.048-39.859-89.048-89.047s39.86-89.048 89.048-89.048 89.047 39.86 89.047 89.048-39.86 89.047-89.047 89.047zm0-135.76c-25.79 0-46.677 20.887-46.677 46.677 0 25.789 20.887 46.676 46.677 46.676 25.789 0 46.676-20.887 46.676-46.676-1e-3 -25.75-20.887-46.677-46.676-46.677zm-216.52 46.717c0 25.789-20.887 46.676-46.676 46.676s-46.676-20.887-46.676-46.676c0-25.79 20.887-46.677 46.676-46.677 25.789-0.04 46.676 20.887 46.676 46.677z"/>
</g>
</svg>
